Coordinates
version=1
nRows=14
nColumns=36
inDegrees=yes

Units are S.I. units (second, meters, Newtons, ...)
If the header above contains a line with 'inDegrees', this indicates whether rotational values are in degrees (yes) or radians (no).

endheader
time	pelvis_tilt	pelvis_list	pelvis_rotation	pelvis_tx	pelvis_ty	pelvis_tz	hip_flexion_r	hip_adduction_r	hip_rotation_r	knee_angle_r	knee_angle_r_beta	ankle_angle_r	subtalar_angle_r	mtp_angle_r	hip_flexion_l	hip_adduction_l	hip_rotation_l	knee_angle_l	knee_angle_l_beta	ankle_angle_l	subtalar_angle_l	mtp_angle_l	lumbar_extension	lumbar_bending	lumbar_rotation	arm_flex_r	arm_add_r	arm_rot_r	elbow_flex_r	pro_sup_r	arm_flex_l	arm_add_l	arm_rot_l	elbow_flex_l	pro_sup_l
      0.40000000	     -1.27421274	     -2.80822474	      5.56029887	      0.28843989	      1.03764307	     -0.27164769	     -0.88063371	      7.40554667	     -3.10891699	      5.16532594	      0.09015194	      7.82423408	    -10.68619482	     -6.42455369	     30.17998732	     -6.87245101	     -6.17652858	     46.06963605	      0.80406683	     -2.00031605	     -3.50998714	     -6.42455369	    -14.16407759	      1.01981832	      2.60375425	     -1.70264402	     -8.36642289	     -6.44239142	     47.74337120	    109.70028858	     -9.04785887	    -10.44353456	     -0.57684646	     38.76905824	    108.74810729
      0.41000000	     -1.32404439	     -2.82245911	      5.23990696	      0.29827308	      1.03682916	     -0.27082262	     -1.59573563	      7.52586068	     -2.56734900	      4.90603703	      0.08562650	      8.24619668	    -10.78740906	     -6.44577654	     30.17178499	     -6.77511701	     -6.51465324	     42.68449894	      0.74498505	     -2.07651990	     -3.86165782	     -6.44577654	    -14.16063168	      0.49730905	      2.98479736	     -1.66101106	     -8.45931119	     -5.99242707	     48.16549461	    109.71340885	     -9.06856493	    -10.31456557	     -1.52074972	     39.06275919	    108.68416380
      0.42000000	     -1.44243863	     -2.92441092	      5.01205336	      0.30821451	      1.03565326	     -0.27019459	     -2.25028986	      7.72006468	     -2.11274801	      4.62752164	      0.08076549	      8.59557275	    -10.74748827	     -6.49713735	     30.20272035	     -6.68164031	     -6.63146427	     39.19088728	      0.68401002	     -2.52325566	     -4.64633974	     -6.49713735	    -14.01682834	      0.03541149	      3.00330525	     -1.45835813	     -8.60169804	     -5.27095533	     48.33518046	    109.66421558	     -9.44270213	    -10.03783457	     -3.38367509	     39.82745875	    108.63600741
      0.43000000	     -1.52936481	     -3.01236416	      4.69906371	      0.31821406	      1.03443656	     -0.26947646	     -2.93943329	      7.89162909	     -1.53081047	      4.37172293	      0.07630096	      8.98745974	    -10.82970715	     -6.51563203	     30.06561534	     -6.66581631	     -6.91896764	     35.53713545	      0.62024002	     -2.77520002	     -4.84123018	     -6.51563203	    -13.92801567	     -0.42580095	      3.34638437	     -1.46714821	     -8.71484657	     -4.91908871	     48.74189402	    109.68103251	     -9.45841698	     -9.88376298	     -4.34310857	     40.14617288	    108.58836679
      0.44000000	     -1.61364580	     -3.13363193	      4.42605058	      0.32828601	      1.03305862	     -0.26887969	     -3.65625528	      8.08654360	     -1.01806770	      4.07058907	      0.07104518	      9.33440042	    -10.81394368	     -6.53971355	     29.84156037	     -6.63056316	     -7.03324557	     31.73321619	      0.55384910	     -3.31883069	     -5.22231707	     -6.53971355	    -13.83609720	     -0.87034383	      3.52378774	     -1.39383019	     -8.79110757	     -4.51226107	     49.04246446	    109.68569418	     -9.60226578	     -9.63148487	     -5.77110183	     40.71050912	    108.52788916
      0.45000000	     -1.79346525	     -3.25899932	      4.13917075	      0.33845796	      1.03141264	     -0.26832085	     -4.25200242	      8.26232787	     -0.57747573	      3.81520641	      0.06658791	      9.73366230	    -10.83614947	     -6.55663169	     29.64748897	     -6.61086872	     -7.14743042	     27.85425984	      0.48614854	     -3.71820752	     -5.12353930	     -6.55663169	    -13.60537162	     -1.32290334	      3.74364940	     -1.40783981	     -8.86070121	     -4.13484006	     49.34510916	    109.70476589	     -9.67995706	     -9.42371876	     -6.93863776	     41.12893519	    108.47768277
      0.46000000	     -2.06763950	     -3.46386310	      3.87219166	      0.34865055	      1.02948805	     -0.26783784	     -4.74446651	      8.51028265	     -0.13038232	      3.55792835	      0.06209756	     10.07835329	    -10.77349371	     -6.56782033	     29.51509381	     -6.63812310	     -7.03166097	     23.93207945	      0.41769358	     -3.98252799	     -4.68269237	     -6.56782033	    -13.26106906	     -1.69537142	      3.97895729	     -1.47912336	     -8.92542373	     -3.84540733	     49.62021811	    109.72672447	     -9.72229877	     -9.24086497	     -7.91324666	     41.51386621	    108.43307136
      0.47000000	     -2.08987520	     -3.57348340	      3.62756516	      0.35902544	      1.02789973	     -0.26753482	     -5.56173272	      8.64723797	      0.12661349	      3.23993652	      0.05654756	     10.57208655	    -10.36425028	     -6.60051443	     28.93299745	     -6.54956802	     -6.81560981	     19.78130201	      0.34524885	     -4.53893547	     -4.47386854	     -6.60051443	    -13.22417863	     -2.18956736	      3.86561979	     -1.24862699	     -8.95805377	     -3.29939991	     49.68134558	    109.71225991	     -9.98578902	     -8.81726914	     -9.96249023	     42.35194556	    108.42428397
      0.48000000	     -2.34820418	     -3.73752661	      3.35099333	      0.36945741	      1.02584001	     -0.26709842	     -6.05009155	      8.83782488	      0.38881407	      3.07268837	      0.05362853	     11.07988973	    -10.31748666	     -6.61531829	     28.60407794	     -6.55889494	     -6.49466828	     15.76649353	      0.27517722	     -4.55791719	     -3.33754513	     -6.61531829	    -12.84900343	     -2.63104456	      4.06067671	     -1.34058049	     -8.97467567	     -3.01862380	     49.86825913	    109.64603870	     -9.92435244	     -8.68196272	    -10.84544938	     42.57233841	    108.34669502
      0.49000000	     -2.53134279	     -3.89646644	      3.04345664	      0.37999042	      1.02383988	     -0.26667110	     -6.66668331	      9.00795211	      0.64537620	      2.82662952	      0.04933399	     11.54726819	     -9.96480414	     -6.63331571	     28.12561556	     -6.60131589	     -6.04233717	     11.80467740	      0.20603049	     -4.44345437	     -2.07897117	     -6.63331571	    -12.59004108	     -3.09228790	      4.16671177	     -1.32416520	     -8.93908563	     -2.78277588	     50.01136096	    109.58454697	     -9.93389649	     -8.47313716	    -11.97489712	     42.94740208	    108.29549224
      0.50000000	     -2.75565433	     -4.05951654	      2.74206335	      0.39070810	      1.02169638	     -0.26619716	     -7.23571567	      9.18170131	      0.83140218	      2.61677222	      0.04567129	     12.07996467	     -9.49394957	     -6.65515062	     27.70913914	     -6.69925412	     -5.53143770	      8.10495384	      0.14145813	     -4.12605987	     -0.62893917	     -6.65515062	    -12.24333141	     -3.57906510	      4.22691983	     -1.33724740	     -8.88267826	     -2.49706069	     50.06474198	    109.50981187	     -9.97436497	     -8.31596407	    -13.16548655	     43.32456835	    108.26848825
      0.51000000	     -3.21826603	     -4.27440280	      2.40235987	      0.40136319	      1.01912381	     -0.26560310	     -7.49492270	      9.40402383	      1.11674798	      2.49809160	      0.04359992	     12.46847944	     -9.27965632	     -6.66386509	     27.66915125	     -6.91061866	     -4.89758480	      4.89465358	      0.08542782	     -3.63372590	      0.85370332	     -6.66386509	    -11.60009451	     -4.03802752	      4.43861093	     -1.47969242	     -8.81193170	     -2.32521280	     50.13180394	    109.46415340	     -9.90511743	     -8.29871347	    -13.79404043	     43.46830606	    108.21443162
      0.52000000	     -3.31921070	     -4.38622474	      2.08329634	      0.41225862	      1.01710615	     -0.26503591	     -8.18953061	      9.52271110	      1.03277063	      2.32035220	      0.04049779	     13.27581822	     -8.44838740	     -6.70675866	     27.41813776	     -7.14252454	     -5.06414527	      2.39733058	      0.04184131	     -2.61912765	      3.36357028	     -6.70675866	    -11.42398196	     -4.62865225	      4.26753743	     -1.29277959	     -8.68375144	     -1.85925250	     49.98161666	    109.46877920	    -10.02523948	     -8.07383537	    -15.46675556	     43.94713145	    108.43085331
      0.53000000	     -3.67498340	     -4.58414931	      1.86838646	      0.42290036	      1.01460993	     -0.26451787	     -8.54473427	      9.75164023	      1.20141651	      2.23880579	      0.03907453	     13.67447984	     -8.33957550	     -6.71799386	     27.83478389	     -7.42056060	     -4.91603144	      0.95823453	      0.01672435	     -1.69590710	      4.90156445	     -6.71799386	    -10.94764142	     -5.10888518	      4.31713329	     -1.41344872	     -8.53924554	     -1.76292563	     49.98628582	    109.44192642	     -9.80205411	     -8.16242260	    -16.01704831	     43.86206212	    108.41641433
